<?xml version="1.0" encoding="UTF-8"?>
<!DOCTYPE svg PUBLIC "-//W3C//DTD SVG 1.1//EN" "http://www.w3.org/Graphics/SVG/1.1/DTD/svg11.dtd">
<!-- Creator: CorelDRAW 2019 (64-Bit) -->
<svg xmlns="http://www.w3.org/2000/svg" xml:space="preserve" width="202.284mm" height="44.541mm" version="1.1" style="shape-rendering:geometricPrecision; text-rendering:geometricPrecision; image-rendering:optimizeQuality; fill-rule:evenodd; clip-rule:evenodd"
viewBox="0 0 25964.42 5717.12"
 xmlns:xlink="http://www.w3.org/1999/xlink"
 xmlns:xodm="http://www.corel.com/coreldraw/odm/2003">
 <defs>
  <style type="text/css">
   <![CDATA[
    .fil1 {fill:black}
    .fil0 {fill:#FF0009}
    .fil2 {fill:black;fill-rule:nonzero}
   ]]>
  </style>
 </defs>
 <g id="Layer_x0020_1">
  <metadata id="CorelCorpID_0Corel-Layer"/>
  <g id="_1302418798080">
   <g id="_2208192276000">
    <g>
     <path class="fil0" d="M2244.27 779.1c133.29,0 263.86,11.68 390.78,33.96 -1139.3,8.02 -2060.48,933.92 -2060.48,2075.16 0,1146.18 929.17,2075.36 2075.32,2075.36 460.79,0 886.39,-150.27 1230.78,-404.3 -409.46,436.07 -991.04,708.49 -1636.4,708.49 -1239.5,0 -2244.29,-1004.84 -2244.29,-2244.34 0,-1239.49 1004.85,-2244.27 2244.29,-2244.27l0 -0.06z"/>
     <path class="fil1" d="M2831.89 5717.05c-169.8,0 -336.08,-14.88 -497.7,-43.24 1451.15,-10.19 2624.41,-1189.52 2624.41,-2643.06 0,-1459.87 -1183.46,-2643.33 -2643.33,-2643.33 -586.88,0 -1129,191.38 -1567.6,515 521.47,-555.39 1262.28,-902.41 2084.23,-902.41 1578.72,0 2858.56,1279.82 2858.56,2858.56 0,1578.72 -1279.83,2858.56 -2858.56,2858.56l0 -0.08z"/>
     <path class="fil2" d="M1712.66 2575.81l-205.94 361.05 -205.95 -361.05 -293.18 0 0 848.05 272.59 0 0 -445.83 189 327.08 75.11 0 189.02 -327.08 0 445.83 272.58 0 0 -848.05 -293.18 0 -0.06 0zm1006.79 238.68l0 -238.68 -592.43 0 0 848.05 271.41 0 0 -272.58 285.89 0 0 -219.31 -285.89 0 0 -117.52 321.08 0 -0.06 0.04zm802 -238.68l-205.94 361.05 -205.95 -361.05 -293.18 0 0 848.05 272.58 0 0 -445.83 189.02 327.08 75.11 0 189.02 -327.08 0 445.83 272.58 0 0 -848.05 -293.18 0 -0.06 0zm782.64 317.4c-65.41,-18.15 -128.45,-21.82 -128.45,-63.02 0,-29.06 25.45,-48.44 73.88,-48.44 46.04,0 78.79,23 88.48,56.96l224.15 -54.51c-30.29,-148.98 -165.98,-222.92 -315.01,-222.92 -186.57,0 -333.16,109.01 -333.16,275.03 0,174.44 113.92,229 268.97,266.52 84.79,20.6 136.9,22.99 136.9,65.42 0,32.73 -35.13,50.88 -82.4,50.88 -64.19,0 -119.97,-32.68 -124.83,-76.33l-225.32 70.26c35.13,169.58 203.55,226.55 363.45,226.55 230.21,0 341.62,-133.3 341.62,-285.9 0,-142.96 -81.19,-203.55 -288.34,-260.5l0.05 0z"/>
    </g>
    <g>
     <path class="fil2" d="M7900.98 3423.52l-852.85 -1800.43 0 1194.65c0,106.96 7.57,185.45 22.1,236.02 14.53,50.57 48.85,93.6 102.92,128.5 53.46,35.46 119.17,52.92 195.92,52.92l0 188.35 -826.67 0 0 -188.35c71.49,0 133.71,-19.21 186.03,-56.99 52.32,-38.35 84.88,-81.96 96.5,-131.39 11.64,-49.43 17.46,-128.5 17.46,-237.77l0 -1215.01c0,-115.67 -19.78,-193.02 -59.31,-232.52 -40.11,-38.93 -119.74,-58.71 -240.67,-58.71l0 -188.35 923.74 0 706.9 1517.31 723.78 -1517.31 920.84 0 0 188.35 -45.35 0c-115.1,0 -189.49,21.5 -223.82,63.96 -34.28,42.42 -51.74,115.67 -51.74,219.17l0 1366.14c0,105.82 18.03,179.63 54.06,220.91 35.46,41.28 110.46,62.21 224.42,62.21l52.92 0 0 188.35 -1252.22 0 0 -188.35 45.93 0c114.49,0 188.91,-21.5 223.24,-63.96 34.32,-42.46 51.74,-115.1 51.74,-218.03l0 -1353.35 -862.13 1823.69 -133.71 0 -0.03 -0.03zm2555.58 -624.36l-44.18 114.53c-31.96,80.81 -47.67,137.78 -47.67,170.92 0,55.82 18.61,94.78 55.82,117.46 37.79,22.1 98.82,33.14 184.31,33.14l0 188.35 -763.89 0 0 -188.35c147.1,0 270.34,-124.42 370.31,-372.66l705.74 -1789.97 204.06 0 719.1 1788.22c71.49,177.89 136.64,284.87 194.74,320.3 58.15,36.03 113.95,54.06 167.45,54.06l0 188.35 -1147.58 0 0 -188.35c103.49,0 167.42,-9.9 192.42,-30.25 25,-19.78 37.81,-45.35 37.81,-76.74 0,-26.15 -11.64,-61.03 -34.32,-104.64l-20.92 -52.9 -63.96 -171.52 -709.25 0 0 0.04zm76.17 -195.35l555.18 0 -286.02 -690.03 -269.16 690.03zm2588.14 -198.81l0 547.04c0,105.82 18.03,179.63 54.64,220.91 36.65,41.28 111.61,62.21 224.98,62.21l41.28 0 0 188.35 -1241.76 0 0 -188.35 45.35 0c115.1,0 189.49,-21.5 223.82,-63.96 34.28,-42.46 51.71,-115.7 51.71,-219.17l0 -1366.14c0,-105.82 -18.03,-179.63 -54.04,-220.91 -36.07,-41.28 -109.89,-62.21 -221.49,-62.21l-45.35 0 0 -188.35 925.49 -1.75 207.53 -1.75c205.24,0 355.23,7 449.98,20.36 94.74,13.97 188.35,46.5 280.2,98.24 91.85,51.74 163.92,122.07 216.85,212.2 52.92,89.53 79.07,186.03 79.07,289.52 0,274.99 -155.77,462.76 -467.37,563.9 82.53,51.74 211.6,215.1 386.58,490.08 136.64,212.78 233.7,340.66 291.84,384.26 57.53,43.6 120.92,65.68 190.1,65.68l0 188.35 -722.03 0c-65.68,-77.89 -188.35,-276.74 -366.8,-595.89 -90.11,-161.02 -153.49,-265.09 -189.53,-311.62 -36.61,-47.07 -73.82,-76.74 -112.17,-89.53 -38.39,-13.36 -120.92,-20.36 -248.84,-21.5l-0.03 0.03zm0 -209.27c192.42,2.32 322.66,-9.32 390.09,-34.89 66.85,-25.57 119.74,-70.93 158.7,-137.2 38.93,-66.28 58.11,-155.81 58.11,-269.16 0,-161.63 -38.35,-273.23 -115.67,-335.45 -76.74,-62.21 -209.27,-93.57 -397.04,-93.57 -23.82,0 -55.24,0.58 -94.18,1.75l0 868.52zm2407.34 -875.48l-195.92 0c-116.28,0 -202.32,12.22 -257.52,37.21 -54.64,25 -100.57,74.42 -137.78,148.82 -37.21,73.82 -59.89,162.2 -68.03,263.91l-188.35 0 0 -655.75 2309.09 0 0 655.75 -188.35 0c-36.61,-176.71 -88.35,-295.87 -154.63,-357.51 -66.28,-61.64 -172.1,-92.46 -317.41,-92.46l-201.13 0 0 1632.41c0,105.24 18.03,179.06 53.46,220.35 36.07,41.28 111.03,62.21 225.56,62.21l59.29 0 0 188.35 -1269.65 0 0 -188.35 54.64 0c115.07,0 190.1,-21.5 224.96,-63.96 34.32,-42.46 51.74,-115.7 51.74,-218.59l0 -1632.41 0.04 0.01zm1663.23 -17.43l0 -188.35 1210.32 0 0 188.35 -35.46 0c-114.53,0 -188.91,21.5 -223.24,63.96 -34.28,42.42 -51.71,115.67 -51.71,219.17l0 1366.14c0,105.82 18.03,179.63 53.46,220.91 35.46,41.28 109.28,62.21 221.49,62.21l35.46 0 0 188.35 -1210.32 0 0 -188.35c120.92,0 200.53,-18.64 240.67,-56.39 39.53,-37.21 59.31,-112.77 59.31,-226.74l0 -1366.14c0,-110.46 -18.61,-184.88 -56.39,-224.42 -37.21,-38.93 -118.6,-58.71 -243.56,-58.71l-0.04 0zm1950.93 472.62l0 1058.62c0,169.74 30.82,279.06 93.03,327.87 62.21,48.81 141.85,73.24 238.35,73.24l0 188.35 -872.03 0 0 -188.35c74.42,0 138.96,-18.03 194.16,-53.5 54.64,-36.03 89.53,-77.32 104.64,-124.39 14.53,-47.07 22.1,-121.49 22.1,-222.63l0 -1178.97c0,-235.46 -110.46,-352.88 -331.38,-352.88l0 -188.35 781.92 0 1262.1 1412.68 0 -846.45c0,-251.71 -106.96,-377.84 -320.92,-377.84l0 -188.35 833.64 0 0 188.35c-58.15,0 -112.21,15.69 -162.78,47.65 -50.57,31.96 -84.88,72.68 -102.89,122.11 -18.03,49.43 -27.31,120.92 -27.31,215.1l0 1774.26 -219.73 0 -1492.89 -1686.47 -0.01 -0.04zm3091.59 545.89l0 569.72c0,109.28 6.39,180.24 18.61,213.96 12.78,33.14 46.53,61.03 101.13,83.14 54.64,22.1 138.38,33.14 249.99,33.14 151.74,0 263.35,-18.61 334.84,-56.39 70.93,-37.21 134.89,-102.89 191.28,-197.07 56.96,-94.18 97.64,-194.74 122.67,-301.12l188.35 0 -15.11 756.89 -2112.59 0 0 -188.35 43.04 0c115.67,0 190.67,-21.5 225.56,-63.96 34.89,-42.46 52.32,-115.1 52.32,-218.59l0 -1367.32c0,-105.82 -18.03,-179.06 -54.06,-220.31 -36.03,-41.28 -110.46,-62.21 -223.82,-62.21l-43.04 0 0 -188.35 1967.25 0 34.89 596.47 -188.35 0c-34.32,-104.07 -72.68,-187.17 -115.1,-248.81 -41.86,-61.64 -84.28,-101.75 -127.32,-119.17 -43.04,-17.43 -115.1,-26.17 -216.85,-26.17l-433.69 0 0 798.77 219.17 0c104.07,0 173.24,-19.18 207.53,-58.15 34.32,-38.35 53.5,-114.53 58.15,-227.88l188.35 0 0 781.32 -188.35 0c1.18,-14.53 1.75,-25.57 1.75,-31.96 0,-65.71 -13.97,-124.99 -42.42,-177.91 -28.5,-52.92 -101.17,-79.65 -218.03,-79.65l-226.13 0 -0.03 -0.05zm2268.98 -1001.08l-195.92 0c-116.28,0 -202.32,12.22 -257.52,37.21 -54.64,25 -100.57,74.42 -137.78,148.82 -37.21,73.82 -59.85,162.2 -68.03,263.91l-188.35 0 0 -655.75 2309.09 0 0 655.75 -188.35 0c-36.61,-176.71 -88.35,-295.87 -154.63,-357.51 -66.28,-61.64 -172.06,-92.46 -317.41,-92.46l-201.13 0 0 1632.41c0,105.24 18.03,179.06 53.46,220.35 36.07,41.28 111.03,62.21 225.56,62.21l59.31 0 0 188.35 -1269.65 0 0 -188.35 54.64 0c115.1,0 190.1,-21.5 224.96,-63.96 34.32,-42.46 51.74,-115.7 51.74,-218.59l0 -1632.41 0.01 0.01z"/>
     <path class="fil2" d="M6760.39 4368.05l0 149.89c0,25.17 4.27,42.69 12.99,52.52 8.57,9.79 26.38,14.77 53.6,14.77l11.33 0 0 44.75 -294.3 0 0 -44.75 8.18 0c27.22,0 45.01,-5.11 53.33,-15.21 8.14,-10.06 12.28,-27.35 12.28,-51.95l0 -324.99c0,-25.13 -4.27,-42.56 -12.72,-52.36 -8.57,-9.82 -26.25,-14.77 -53.06,-14.77l-9.65 0 0 -44.78 460.94 0 3.3 145.08 -44.75 0c-6.76,-24.73 -15.61,-44.89 -26.27,-60.22 -10.63,-15.34 -21.67,-25.3 -33.18,-29.84 -11.48,-4.57 -28.87,-6.93 -52.36,-6.93l-89.67 0 0 189.02 43.81 0c20.73,0 35.22,-4.4 43.27,-13.12 8.01,-8.82 12.99,-26.81 14.9,-54.04l44.78 0 0 189.02 -44.78 0c-1.37,-29.44 -6.08,-48.79 -14.36,-58.17 -8.14,-9.25 -23.08,-13.93 -44.62,-13.93l-42.96 0 -0.04 0zm314.05 113.56l-10.5 27.22c-7.6,19.21 -11.33,32.77 -11.33,40.64 0,13.26 4.44,22.51 13.26,27.89 8.98,5.25 23.49,7.87 43.81,7.87l0 44.75 -181.55 0 0 -44.75c34.95,0 64.27,-29.57 88.01,-88.59l167.76 -425.41 48.48 0 170.92 425.01c16.99,42.29 32.47,67.7 46.26,76.14 13.82,8.55 27.08,12.85 39.8,12.85l0 44.75 -272.76 0 0 -44.75c24.59,0 39.8,-2.35 45.72,-7.2 5.96,-4.71 8.98,-10.77 8.98,-18.24 0,-6.23 -2.76,-14.5 -8.14,-24.86l-4.98 -12.58 -15.17 -40.74 -168.56 0 -0.03 0zm18.1 -46.43l131.96 0 -67.96 -164.03 -63.96 164.03 -0.04 0zm930.87 -15.75l0 206.41 -44.78 0c-5.11,-21.67 -12.85,-39.1 -23.08,-52.22 -45.59,45.32 -105.84,67.96 -180.61,67.96 -84.98,0 -152.95,-27.76 -203.92,-83.44 -51.01,-55.68 -76.54,-121.59 -76.54,-198.14 0,-75.29 25.17,-142.32 75.56,-200.9 50.43,-58.58 120.08,-87.89 208.9,-87.89 66.62,0 123.11,22.1 169.4,66.31 6.23,-13.8 11.87,-30.11 16.99,-48.92l44.78 0 5.79 203.12 -44.78 0c-13.26,-55.14 -34.82,-96.87 -64.94,-125.06 -29.98,-28.33 -65.64,-42.42 -106.96,-42.42 -47.38,0 -83.17,18.64 -107.23,55.95 -23.93,37.17 -35.93,95.48 -35.93,174.51 0,55.68 4.27,99.76 12.99,132.36 8.55,32.47 25.71,57.47 51.24,75 25.44,17.56 53.33,26.42 83.61,26.42 40.07,0 75.7,-13.97 106.92,-41.72 31.36,-27.89 53.9,-70.31 67.7,-127.38l44.78 0 0.09 0.04zm77.93 -293.49l0 -44.78 287.67 0 0 44.78 -8.45 0c-27.22,0 -44.89,5.11 -53.06,15.21 -8.18,10.09 -12.28,27.49 -12.28,52.09l0 324.72c0,25.17 4.27,42.69 12.72,52.52 8.41,9.79 25.98,14.77 52.65,14.77l8.45 0 0 44.75 -287.67 0 0 -44.75c28.74,0 47.67,-4.44 57.2,-13.43 9.42,-8.84 14.09,-26.81 14.09,-53.9l0 -324.72c0,-26.25 -4.4,-43.94 -13.43,-53.33 -8.82,-9.25 -28.16,-13.97 -57.9,-13.97l0.01 0.03zm834.28 321.65l-2.49 182.39 -499.91 0 0 -44.75 8.01 0c27.49,0 45.32,-5.11 53.46,-15.21 8.18,-10.06 12.31,-27.49 12.31,-52.09l0 -324.72c0,-25.13 -4.27,-42.69 -12.85,-52.48 -8.68,-9.82 -26.25,-14.77 -52.92,-14.77l-8.01 0 0 -44.78 292.65 0 0 44.78 -10.77 0c-27.35,0 -45.05,5.11 -53.19,15.21 -8.18,10.09 -12.31,27.49 -12.31,51.95l0 313.51c0,23.49 1.37,38.96 4,46.57 2.76,7.47 9.82,14.09 21.29,19.61 11.6,5.52 31.63,8.28 60.22,8.28 48.08,0 84.15,-12.01 107.9,-36.2 23.78,-24.2 39.93,-56.49 48.62,-97.27l43.94 0 0.04 -0.04zm29.3 -321.65l0 -44.78 287.67 0 0 44.78 -8.45 0c-27.22,0 -44.89,5.11 -53.06,15.21 -8.18,10.09 -12.28,27.49 -12.28,52.09l0 324.72c0,25.17 4.27,42.69 12.72,52.52 8.41,9.79 25.98,14.77 52.65,14.77l8.45 0 0 44.75 -287.67 0 0 -44.75c28.74,0 47.67,-4.44 57.2,-13.43 9.42,-8.84 14.09,-26.81 14.09,-53.9l0 -324.72c0,-26.25 -4.4,-43.94 -13.43,-53.33 -8.82,-9.25 -28.16,-13.97 -57.9,-13.97l0.01 0.03zm537.49 4.13l-46.57 0c-27.66,0 -48.08,2.93 -61.2,8.84 -12.99,5.96 -23.93,17.66 -32.77,35.36 -8.82,17.56 -14.23,38.56 -16.15,62.75l-44.75 0 0 -155.88 548.79 0 0 155.88 -44.75 0c-8.72,-42.02 -21.02,-70.35 -36.77,-84.98 -15.75,-14.63 -40.91,-21.97 -75.44,-21.97l-47.81 0 0 388c0,25.03 4.27,42.56 12.72,52.38 8.57,9.79 26.42,14.77 53.63,14.77l14.09 0 0 44.75 -301.77 0 0 -44.75 12.99 0c27.35,0 45.18,-5.11 53.46,-15.21 8.14,-10.06 12.28,-27.49 12.28,-51.95l0 -388zm583.47 274.99l-122.3 -206.45c-19.48,-32.47 -34.55,-52.79 -45.32,-60.66 -10.94,-8.01 -25.17,-12.01 -42.96,-12.01l0 -44.78 275.22 0 0 44.78c-29.44,0 -44.08,8.01 -44.08,23.89 0,8.98 5.52,22.64 16.58,41.05l88.16 148.68 82.76 -137.34c8.55,-14.09 12.85,-27.49 12.85,-40.2 0,-24.05 -17.83,-36.07 -53.46,-36.07l0 -44.78 188.18 0 0 44.78c-17.56,0 -33.31,6.49 -47.11,19.48 -13.97,12.99 -33.85,40.34 -59.69,82.2l-103.76 168.43 0 121.86c0,25.17 4.31,42.69 12.72,52.52 8.45,9.79 25.98,14.77 52.65,14.77l8.41 0 0 44.75 -293.49 0 0 -44.75 8.84 0c27.49,0 45.32,-5.11 53.46,-15.21 8.14,-10.06 12.28,-27.49 12.28,-52.09l0 -112.88 0.04 0.03zm907.79 224.92l-202.67 -427.9 0 283.94c0,25.44 1.78,44.08 5.25,56.12 3.47,12.01 11.6,22.24 24.46,30.55 12.72,8.41 28.33,12.58 46.57,12.58l0 44.75 -196.49 0 0 -44.75c16.99,0 31.79,-4.57 44.21,-13.53 12.45,-9.11 20.19,-19.48 22.95,-31.23 2.76,-11.74 4.13,-30.55 4.13,-56.53l0 -288.78c0,-27.52 -4.71,-45.86 -14.09,-55.28 -9.55,-9.25 -28.47,-13.97 -57.2,-13.97l0 -44.78 219.54 0 168.03 360.62 172.02 -360.62 218.83 0 0 44.78 -10.77 0c-27.35,0 -45.05,5.11 -53.19,15.21 -8.18,10.09 -12.28,27.49 -12.28,52.09l0 324.72c0,25.17 4.27,42.69 12.85,52.52 8.45,9.79 26.27,14.77 53.33,14.77l12.58 0 0 44.75 -297.63 0 0 -44.75 10.9 0c27.22,0 44.89,-5.11 53.06,-15.21 8.14,-10.06 12.28,-27.35 12.28,-51.82l0 -321.69 -204.9 433.46 -31.79 0 0.01 -0.03zm607.41 -148.38l-10.5 27.22c-7.6,19.21 -11.33,32.77 -11.33,40.64 0,13.26 4.44,22.51 13.26,27.89 8.98,5.25 23.51,7.87 43.81,7.87l0 44.75 -181.55 0 0 -44.75c34.95,0 64.27,-29.57 88.01,-88.59l167.76 -425.41 48.48 0 170.92 425.01c16.99,42.29 32.47,67.7 46.26,76.14 13.82,8.55 27.08,12.85 39.8,12.85l0 44.75 -272.76 0 0 -44.75c24.59,0 39.8,-2.35 45.76,-7.2 5.96,-4.71 8.98,-10.77 8.98,-18.24 0,-6.23 -2.76,-14.5 -8.14,-24.86l-4.98 -12.58 -15.17 -40.74 -168.56 0 -0.06 0zm18.1 -46.43l131.96 0 -67.96 -164.03 -63.96 164.03 -0.04 0zm529.75 -196.9l0 251.6c0,40.34 7.33,66.31 22.1,77.95 14.8,11.6 33.74,17.39 56.66,17.39l0 44.75 -207.26 0 0 -44.75c17.7,0 33.04,-4.31 46.16,-12.72 12.99,-8.57 21.27,-18.37 24.86,-29.57 3.47,-11.21 5.25,-28.91 5.25,-52.92l0 -280.2c0,-55.95 -26.27,-83.88 -78.76,-83.88l0 -44.78 185.82 0 299.98 335.74 0 -201.16c0,-59.83 -25.44,-89.8 -76.27,-89.8l0 -44.78 198.14 0 0 44.78c-13.8,0 -26.65,3.74 -38.69,11.31 -12.01,7.6 -20.19,17.29 -24.46,29.03 -4.31,11.74 -6.49,28.74 -6.49,51.11l0 421.71 -52.22 0 -354.83 -400.86 0 0.04zm603.53 243.33l-10.5 27.22c-7.6,19.21 -11.33,32.77 -11.33,40.64 0,13.26 4.44,22.51 13.26,27.89 8.98,5.25 23.49,7.87 43.81,7.87l0 44.75 -181.55 0 0 -44.75c34.95,0 64.23,-29.57 88.01,-88.59l167.76 -425.41 48.48 0 170.92 425.01c16.99,42.29 32.47,67.7 46.26,76.14 13.82,8.55 27.08,12.85 39.8,12.85l0 44.75 -272.76 0 0 -44.75c24.59,0 39.8,-2.35 45.76,-7.2 5.96,-4.71 8.98,-10.77 8.98,-18.24 0,-6.23 -2.76,-14.5 -8.14,-24.86l-4.98 -12.58 -15.17 -40.74 -168.56 0 -0.06 0zm18.1 -46.43l131.96 0 -67.96 -164.03 -63.96 164.03 -0.04 0zm745.98 -14.09l0 -44.75 256.98 0 0 44.75c-20.59,3.47 -34.12,9.52 -40.34,17.97 -6.23,8.57 -9.42,26.11 -9.42,52.79l0 114.97c-8.68,-0.54 -15.61,-0.85 -21,-0.85 -26.81,0 -71.97,6.89 -135.83,20.86 -45.59,9.79 -83.71,14.77 -114.53,14.77 -83.44,0 -151,-27.89 -202.55,-83.57 -51.51,-55.85 -77.39,-120.92 -77.39,-195.11 0,-79.71 27.25,-148.28 81.66,-205.6 54.31,-57.34 121.73,-86.06 202.14,-86.06 65.64,0 123.25,21 172.97,62.88 8.55,-17.83 13.82,-36.88 15.75,-57.07l43.1 0 4.98 191.51 -44.75 0c-27.79,-93.4 -81.93,-140.1 -162.47,-140.1 -47.94,0 -84.55,17.7 -109.72,53.06 -25.3,35.36 -37.85,94.78 -37.85,178.22 0,58.58 3.74,103.1 11.17,133.61 7.47,30.55 21.83,54.17 42.96,70.89 21.29,16.72 48.92,25.13 82.76,25.13 29.98,0 54.85,-6.49 74.63,-19.48 19.75,-12.85 29.71,-38.39 29.71,-76.41l0 -20.19c0,-32.2 -21,-49.6 -62.98,-52.22l0.01 0zm511.12 -53.06l0 135.39c0,26.01 1.51,42.83 4.4,50.84 3.03,7.87 11.04,14.5 24.05,19.78 12.99,5.25 32.87,7.87 59.42,7.87 36.07,0 62.59,-4.4 79.57,-13.43 16.85,-8.82 32.06,-24.43 45.45,-46.84 13.55,-22.37 23.22,-46.26 29.18,-71.56l44.78 0 -3.59 179.9 -502.09 0 0 -44.75 10.23 0c27.52,0 45.32,-5.11 53.63,-15.21 8.28,-10.06 12.45,-27.35 12.45,-51.95l0 -324.99c0,-25.13 -4.27,-42.56 -12.82,-52.36 -8.57,-9.82 -26.27,-14.77 -53.23,-14.77l-10.23 0 0 -44.78 467.58 0 8.3 141.78 -44.78 0c-8.14,-24.73 -17.26,-44.51 -27.35,-59.15 -9.96,-14.63 -20.05,-24.16 -30.28,-28.33 -10.23,-4.17 -27.35,-6.23 -51.55,-6.23l-103.06 0 0 189.86 52.09 0c24.73,0 41.15,-4.54 49.33,-13.82 8.14,-9.11 12.68,-27.22 13.8,-54.17l44.78 0 0 185.69 -44.78 0c0.27,-3.47 0.4,-6.08 0.4,-7.57 0,-15.61 -3.3,-29.71 -10.09,-42.29 -6.76,-12.55 -24.05,-18.91 -51.82,-18.91l-53.73 0 -0.03 -0.04zm657.39 261.96l-202.67 -427.9 0 283.94c0,25.44 1.78,44.08 5.25,56.12 3.47,12.01 11.6,22.24 24.46,30.55 12.72,8.41 28.33,12.58 46.57,12.58l0 44.75 -196.49 0 0 -44.75c16.99,0 31.79,-4.57 44.21,-13.53 12.45,-9.11 20.19,-19.48 22.95,-31.23 2.76,-11.74 4.13,-30.55 4.13,-56.53l0 -288.78c0,-27.52 -4.71,-45.86 -14.09,-55.28 -9.52,-9.25 -28.47,-13.97 -57.2,-13.97l0 -44.78 219.54 0 168.03 360.62 172.02 -360.62 218.83 0 0 44.78 -10.77 0c-27.35,0 -45.05,5.11 -53.19,15.21 -8.18,10.09 -12.28,27.49 -12.28,52.09l0 324.72c0,25.17 4.27,42.69 12.85,52.52 8.41,9.79 26.25,14.77 53.33,14.77l12.58 0 0 44.75 -297.63 0 0 -44.75 10.9 0c27.22,0 44.91,-5.11 53.06,-15.21 8.14,-10.06 12.28,-27.35 12.28,-51.82l0 -321.69 -204.9 433.46 -31.79 0 0.01 -0.03zm715.61 -261.96l0 135.39c0,26.01 1.51,42.83 4.4,50.84 3.03,7.87 11.04,14.5 24.05,19.78 12.99,5.25 32.87,7.87 59.42,7.87 36.07,0 62.59,-4.4 79.57,-13.43 16.85,-8.82 32.06,-24.43 45.45,-46.84 13.55,-22.37 23.22,-46.26 29.18,-71.56l44.78 0 -3.59 179.9 -502.09 0 0 -44.75 10.23 0c27.52,0 45.32,-5.11 53.63,-15.21 8.28,-10.06 12.45,-27.35 12.45,-51.95l0 -324.99c0,-25.13 -4.27,-42.56 -12.82,-52.36 -8.57,-9.82 -26.27,-14.77 -53.23,-14.77l-10.23 0 0 -44.78 467.58 0 8.3 141.78 -44.78 0c-8.14,-24.73 -17.26,-44.51 -27.35,-59.15 -9.96,-14.63 -20.05,-24.16 -30.28,-28.33 -10.23,-4.17 -27.35,-6.23 -51.55,-6.23l-103.06 0 0 189.86 52.09 0c24.73,0 41.15,-4.54 49.33,-13.82 8.14,-9.11 12.72,-27.22 13.8,-54.17l44.78 0 0 185.69 -44.78 0c0.27,-3.47 0.4,-6.08 0.4,-7.57 0,-15.61 -3.3,-29.71 -10.09,-42.29 -6.76,-12.55 -24.05,-18.91 -51.82,-18.91l-53.73 0 -0.03 -0.04zm465.48 -129.77l0 251.6c0,40.34 7.33,66.31 22.1,77.95 14.8,11.6 33.74,17.39 56.66,17.39l0 44.75 -207.26 0 0 -44.75c17.7,0 33.04,-4.31 46.16,-12.72 12.99,-8.57 21.27,-18.37 24.86,-29.57 3.43,-11.21 5.25,-28.91 5.25,-52.92l0 -280.2c0,-55.95 -26.27,-83.88 -78.76,-83.88l0 -44.78 185.82 0 299.98 335.74 0 -201.16c0,-59.83 -25.44,-89.8 -76.27,-89.8l0 -44.78 198.17 0 0 44.78c-13.82,0 -26.69,3.74 -38.69,11.31 -12.01,7.6 -20.19,17.29 -24.46,29.03 -4.27,11.74 -6.49,28.74 -6.49,51.11l0 421.71 -52.22 0 -354.83 -400.86 -0.03 0.04zm721.53 -108.2l-46.57 0c-27.66,0 -48.11,2.93 -61.2,8.84 -12.99,5.96 -23.93,17.66 -32.77,35.36 -8.82,17.56 -14.23,38.56 -16.15,62.75l-44.78 0 0 -155.88 548.83 0 0 155.88 -44.78 0c-8.72,-42.02 -21,-70.35 -36.77,-84.98 -15.75,-14.63 -40.88,-21.97 -75.44,-21.97l-47.81 0 0 388c0,25.03 4.27,42.56 12.72,52.38 8.55,9.79 26.42,14.77 53.63,14.77l14.09 0 0 44.75 -301.77 0 0 -44.75 12.99 0c27.35,0 45.18,-5.11 53.46,-15.21 8.14,-10.06 12.28,-27.49 12.28,-51.95l0 -388 0.04 0zm625.33 491.62l0 -188.18 48.92 0c13.43,55.68 33.58,95.48 60.53,119.24 26.81,23.89 55.95,35.8 87.04,35.8 23.22,0 41.59,-6.93 55.24,-20.73 13.7,-13.82 20.59,-29.98 20.59,-48.79 0,-13.26 -4.27,-26.54 -12.85,-39.8 -8.55,-13.26 -29.03,-27.89 -61.2,-44.21 -62.34,-30.28 -104.47,-52.65 -126.3,-67.16 -21.83,-14.5 -39.39,-33.04 -52.52,-55.68 -13.26,-22.64 -19.88,-48.79 -19.88,-78.19 0,-47.27 16.99,-86.23 50.84,-116.75 33.85,-30.69 73.07,-46.03 117.73,-46.03 46.7,0 86.33,15.75 118.97,47.24 5.38,-8.14 9.96,-20.59 13.39,-37.31l46.43 0 0 161.66 -45.59 0c-8.14,-35.93 -23.49,-65.47 -46.13,-88.72 -22.64,-23.22 -48.21,-34.82 -76.54,-34.82 -21.29,0 -38.29,5.96 -50.84,17.83 -12.58,11.87 -18.8,26.81 -18.8,44.64 0,13.82 4,26.52 12.14,38.29 8.18,11.74 19.07,21.56 32.91,29.14 13.8,7.74 42.96,21.97 87.58,42.83 39.93,18.95 69.38,35.8 88.59,50.57 19.18,14.94 34.25,33.58 45.45,56.09 11.21,22.68 16.85,46.97 16.85,73.24 0,48.48 -17.97,88.99 -53.73,121.3 -35.93,32.2 -78.63,48.35 -128.23,48.35 -28.2,0 -55.95,-5.96 -83.07,-17.7 -27.08,-11.74 -48.62,-27.49 -64.81,-46.97 -6.23,12.14 -10.9,27.08 -13.82,44.78l-48.92 0 0.04 0.04zm657.44 -253.68l0 135.39c0,26.01 1.51,42.83 4.4,50.84 3.03,7.87 11.04,14.5 24.05,19.78 12.99,5.25 32.87,7.87 59.42,7.87 36.07,0 62.59,-4.4 79.57,-13.43 16.85,-8.82 32.06,-24.43 45.45,-46.84 13.55,-22.37 23.25,-46.26 29.18,-71.56l44.75 0 -3.59 179.9 -502.13 0 0 -44.75 10.23 0c27.49,0 45.32,-5.11 53.63,-15.21 8.28,-10.06 12.45,-27.35 12.45,-51.95l0 -324.99c0,-25.13 -4.31,-42.56 -12.85,-52.36 -8.57,-9.82 -26.27,-14.77 -53.19,-14.77l-10.23 0 0 -44.78 467.58 0 8.3 141.78 -44.78 0c-8.14,-24.73 -17.26,-44.51 -27.35,-59.15 -9.96,-14.63 -20.05,-24.16 -30.28,-28.33 -10.23,-4.17 -27.35,-6.23 -51.55,-6.23l-103.06 0 0 189.86 52.09 0c24.73,0 41.15,-4.54 49.33,-13.82 8.14,-9.11 12.72,-27.22 13.82,-54.17l44.75 0 0 185.69 -44.75 0c0.27,-3.47 0.4,-6.08 0.4,-7.57 0,-15.61 -3.34,-29.71 -10.09,-42.29 -6.76,-12.55 -24.05,-18.91 -51.82,-18.91l-53.73 0 0.01 -0.04zm550.87 19.88l0 130.01c0,25.17 4.27,42.69 12.99,52.52 8.72,9.79 26.52,14.77 53.46,14.77l9.79 0 0 44.75 -295.1 0 0 -44.75 10.77 0c27.35,0 45.05,-5.11 53.19,-15.21 8.18,-10.06 12.28,-27.49 12.28,-52.09l0 -324.72c0,-25.13 -4.27,-42.69 -12.85,-52.48 -8.57,-9.82 -26.11,-14.77 -52.65,-14.77l-10.77 0 0 -44.78 219.94 -0.4 49.33 -0.4c48.79,0 84.42,1.64 106.92,4.81 22.54,3.3 44.78,11.04 66.62,23.35 21.83,12.28 38.96,29.03 51.55,50.43 12.55,21.27 18.8,44.21 18.8,68.8 0,65.37 -37.04,109.99 -111.07,134.04 19.61,12.28 50.26,51.11 91.85,116.48 32.5,50.57 55.55,80.98 69.38,91.35 13.66,10.36 28.74,15.61 45.16,15.61l0 44.75 -171.59 0c-15.61,-18.51 -44.78,-65.78 -87.18,-141.62 -21.4,-38.29 -36.47,-63.02 -45.05,-74.09 -8.72,-11.17 -17.56,-18.24 -26.69,-21.27 -9.11,-3.2 -28.74,-4.81 -59.15,-5.11l0.06 0zm0 -49.75c45.72,0.58 76.68,-2.22 92.72,-8.28 15.88,-6.06 28.47,-16.85 37.71,-32.6 9.25,-15.75 13.82,-37.04 13.82,-63.96 0,-38.39 -9.11,-64.94 -27.49,-79.71 -18.24,-14.77 -49.76,-22.27 -94.38,-22.27 -5.69,0 -13.12,0.13 -22.37,0.44l0 206.41 -0.01 -0.03zm604.88 303.41l-187.07 -421.14c-15.04,-34.12 -25.44,-55.95 -31.09,-65.47 -5.52,-9.65 -13.12,-16.85 -22.54,-21.71 -9.38,-4.81 -24.32,-7.3 -45.05,-7.3l0 -44.78 291.84 0 0 44.78c-40.74,0 -61.07,9.92 -61.07,29.98 0,11.17 5.96,29.41 17.7,54.85l111.77 249.01 106.11 -249.41c7.87,-18.37 11.74,-33.98 11.74,-46.7 0,-25.17 -20.59,-37.71 -61.91,-37.71l0 -44.78 193.16 0 0 44.78c-22.37,0 -39.5,5.92 -51.28,17.83 -11.74,11.87 -30.28,47.81 -55.68,107.9l-165.94 389.92 -50.7 0 -0.01 -0.05zm338.1 -515.65l0 -44.78 287.67 0 0 44.78 -8.41 0c-27.22,0 -44.91,5.11 -53.06,15.21 -8.18,10.09 -12.28,27.49 -12.28,52.09l0 324.72c0,25.17 4.27,42.69 12.72,52.52 8.41,9.79 25.98,14.77 52.65,14.77l8.41 0 0 44.75 -287.67 0 0 -44.75c28.76,0 47.67,-4.44 57.2,-13.43 9.38,-8.84 14.09,-26.81 14.09,-53.9l0 -324.72c0,-26.25 -4.44,-43.94 -13.43,-53.33 -8.84,-9.25 -28.2,-13.97 -57.9,-13.97l0.01 0.03zm880.7 293.49l0 206.41 -44.78 0c-5.11,-21.67 -12.85,-39.1 -23.08,-52.22 -45.59,45.32 -105.84,67.96 -180.61,67.96 -84.98,0 -152.95,-27.76 -203.92,-83.44 -51.01,-55.68 -76.54,-121.59 -76.54,-198.14 0,-75.29 25.13,-142.32 75.56,-200.9 50.43,-58.58 120.08,-87.89 208.9,-87.89 66.62,0 123.11,22.1 169.4,66.31 6.23,-13.8 11.87,-30.11 16.99,-48.92l44.78 0 5.79 203.12 -44.78 0c-13.26,-55.14 -34.82,-96.87 -64.94,-125.06 -29.98,-28.33 -65.64,-42.42 -106.96,-42.42 -47.38,0 -83.17,18.64 -107.23,55.95 -23.93,37.17 -35.93,95.48 -35.93,174.51 0,55.68 4.27,99.76 12.99,132.36 8.55,32.47 25.71,57.47 51.24,75 25.44,17.56 53.33,26.42 83.61,26.42 40.07,0 75.7,-13.97 106.92,-41.72 31.36,-27.89 53.9,-70.31 67.7,-127.38l44.78 0 0.09 0.04zm291.81 -51.41l0 135.39c0,26.01 1.51,42.83 4.4,50.84 3.03,7.87 11.04,14.5 24.05,19.78 12.99,5.25 32.87,7.87 59.42,7.87 36.07,0 62.59,-4.4 79.57,-13.43 16.85,-8.82 32.06,-24.43 45.45,-46.84 13.55,-22.37 23.25,-46.26 29.18,-71.56l44.75 0 -3.59 179.9 -502.13 0 0 -44.75 10.23 0c27.49,0 45.32,-5.11 53.63,-15.21 8.28,-10.06 12.45,-27.35 12.45,-51.95l0 -324.99c0,-25.13 -4.31,-42.56 -12.85,-52.36 -8.57,-9.82 -26.27,-14.77 -53.19,-14.77l-10.23 0 0 -44.78 467.58 0 8.3 141.78 -44.78 0c-8.14,-24.73 -17.26,-44.51 -27.35,-59.15 -9.96,-14.63 -20.05,-24.16 -30.28,-28.33 -10.23,-4.17 -27.35,-6.23 -51.55,-6.23l-103.06 0 0 189.86 52.09 0c24.73,0 41.15,-4.54 49.33,-13.82 8.14,-9.11 12.72,-27.22 13.82,-54.17l44.75 0 0 185.69 -44.75 0c0.27,-3.47 0.4,-6.08 0.4,-7.57 0,-15.61 -3.34,-29.71 -10.09,-42.29 -6.76,-12.55 -24.05,-18.91 -51.82,-18.91l-53.73 0 0.01 -0.04zm361.45 253.68l0 -188.18 48.89 0c13.43,55.68 33.58,95.48 60.53,119.24 26.81,23.89 55.95,35.8 87.04,35.8 23.22,0 41.59,-6.93 55.28,-20.73 13.66,-13.82 20.59,-29.98 20.59,-48.79 0,-13.26 -4.27,-26.54 -12.85,-39.8 -8.55,-13.26 -29.03,-27.89 -61.2,-44.21 -62.34,-30.28 -104.47,-52.65 -126.3,-67.16 -21.83,-14.5 -39.39,-33.04 -52.52,-55.68 -13.26,-22.64 -19.88,-48.79 -19.88,-78.19 0,-47.27 16.99,-86.23 50.84,-116.75 33.85,-30.69 73.07,-46.03 117.73,-46.03 46.7,0 86.33,15.75 118.97,47.24 5.38,-8.14 9.96,-20.59 13.39,-37.31l46.43 0 0 161.66 -45.59 0c-8.14,-35.93 -23.49,-65.47 -46.13,-88.72 -22.64,-23.22 -48.21,-34.82 -76.54,-34.82 -21.29,0 -38.29,5.96 -50.84,17.83 -12.58,11.87 -18.78,26.81 -18.78,44.64 0,13.82 4,26.52 12.14,38.29 8.18,11.74 19.07,21.56 32.91,29.14 13.8,7.74 42.96,21.97 87.58,42.83 39.93,18.95 69.38,35.8 88.59,50.57 19.18,14.94 34.25,33.58 45.45,56.09 11.21,22.68 16.85,46.97 16.85,73.24 0,48.48 -17.97,88.99 -53.73,121.3 -35.93,32.2 -78.63,48.35 -128.23,48.35 -28.2,0 -55.95,-5.96 -83.07,-17.7 -27.08,-11.74 -48.62,-27.49 -64.81,-46.97 -6.23,12.14 -10.9,27.08 -13.82,44.78l-48.89 0 -0.03 0.04zm861.36 -234.61l0 130.85c0,25.17 4.27,42.69 12.85,52.52 8.41,9.79 26.27,14.77 53.33,14.77l12.58 0 0 44.75 -296.79 0 0 -44.75 9.69 0c27.35,0 45.16,-5.11 53.33,-15.21 8.28,-10.06 12.45,-27.49 12.45,-52.09l0 -324.72c0,-25.13 -4.31,-42.69 -12.72,-52.48 -8.45,-9.82 -26.11,-14.77 -52.75,-14.77l-13.26 0 0 -44.78 222.6 -4.98c55.51,0 98.51,1.51 128.9,4.44 30.25,3.03 58.17,11.21 83.44,24.73 25.44,13.53 44.51,31.36 57.36,53.63 12.85,22.24 19.21,46.7 19.21,73.11 0,35.9 -11.21,66.58 -33.58,92.02 -22.24,25.57 -50.14,42.42 -83.57,50.7 -33.58,8.14 -77.66,12.28 -132.36,12.28l-40.61 0 -0.1 -0.03zm0 -48.92l26.92 0c43.27,0 72.14,-9.38 86.5,-28.03 14.5,-18.8 21.71,-43.81 21.71,-75.02 0,-28.06 -5.25,-50.7 -15.88,-68.13 -10.63,-17.43 -24.16,-28.74 -40.47,-33.98 -16.29,-5.25 -42.56,-7.87 -78.76,-7.87l0 213.05 -0.01 -0.01zm565.38 303.41l-187.07 -421.14c-15.04,-34.12 -25.44,-55.95 -31.09,-65.47 -5.52,-9.65 -13.12,-16.85 -22.54,-21.71 -9.38,-4.81 -24.32,-7.3 -45.05,-7.3l0 -44.78 291.84 0 0 44.78c-40.74,0 -61.07,9.92 -61.07,29.98 0,11.17 5.96,29.41 17.7,54.85l111.77 249.01 106.11 -249.41c7.87,-18.37 11.74,-33.98 11.74,-46.7 0,-25.17 -20.59,-37.71 -61.91,-37.71l0 -44.78 193.16 0 0 44.78c-22.37,0 -39.5,5.92 -51.28,17.83 -11.74,11.87 -30.28,47.81 -55.68,107.9l-165.94 389.92 -50.7 0 -0.01 -0.05zm538.72 -511.51l-46.57 0c-27.66,0 -48.08,2.93 -61.2,8.84 -12.99,5.96 -23.93,17.66 -32.77,35.36 -8.82,17.56 -14.23,38.56 -16.15,62.75l-44.75 0 0 -155.88 548.79 0 0 155.88 -44.78 0c-8.72,-42.02 -21,-70.35 -36.77,-84.98 -15.75,-14.63 -40.88,-21.97 -75.44,-21.97l-47.81 0 0 388c0,25.03 4.27,42.56 12.72,52.38 8.57,9.79 26.42,14.77 53.63,14.77l14.09 0 0 44.75 -301.77 0 0 -44.75 12.99 0c27.35,0 45.18,-5.11 53.46,-15.21 8.14,-10.06 12.28,-27.49 12.28,-51.95l0 -388 0.04 0zm322.06 441.06c0,-19.88 7.2,-37.04 21.44,-51.41 14.36,-14.36 31.63,-21.54 51.95,-21.54 20.32,0 37.58,7.2 51.95,21.54 14.23,14.36 21.44,31.52 21.44,51.41 0,20.19 -7.2,37.31 -21.71,51.55 -14.5,14.23 -31.63,21.44 -51.68,21.44 -20.05,0 -37.17,-7.2 -51.68,-21.44 -14.5,-14.23 -21.67,-31.36 -21.67,-51.55l-0.04 0zm939.71 -123.52l-2.49 182.39 -499.91 0 0 -44.75 8.01 0c27.49,0 45.32,-5.11 53.46,-15.21 8.18,-10.06 12.31,-27.49 12.31,-52.09l0 -324.72c0,-25.13 -4.27,-42.69 -12.85,-52.48 -8.68,-9.82 -26.25,-14.77 -52.92,-14.77l-8.01 0 0 -44.78 292.65 0 0 44.78 -10.77 0c-27.35,0 -45.05,5.11 -53.19,15.21 -8.18,10.09 -12.31,27.49 -12.31,51.95l0 313.51c0,23.49 1.37,38.96 4,46.57 2.76,7.47 9.82,14.09 21.29,19.61 11.6,5.52 31.63,8.28 60.22,8.28 48.08,0 84.15,-12.01 107.9,-36.2 23.78,-24.2 39.93,-56.49 48.62,-97.27l43.94 0 0.04 -0.04zm183.34 -317.5l-46.57 0c-27.66,0 -48.08,2.93 -61.2,8.84 -12.99,5.96 -23.93,17.66 -32.77,35.36 -8.82,17.56 -14.23,38.56 -16.15,62.75l-44.75 0 0 -155.88 548.79 0 0 155.88 -44.78 0c-8.72,-42.02 -21,-70.35 -36.77,-84.98 -15.75,-14.63 -40.88,-21.97 -75.44,-21.97l-47.81 0 0 388c0,25.03 4.27,42.56 12.72,52.38 8.57,9.79 26.42,14.77 53.63,14.77l14.09 0 0 44.75 -301.77 0 0 -44.75 12.99 0c27.35,0 45.18,-5.11 53.46,-15.21 8.14,-10.06 12.28,-27.49 12.28,-51.95l0 -388 0.04 0zm396.98 499.9l0 -44.75c28.74,0 47.81,-4.57 57.2,-13.53 9.38,-9.11 14.09,-26.95 14.09,-53.63l0 -324.99c0,-25.84 -4.44,-43.54 -13.26,-52.92 -8.84,-9.55 -28.2,-14.23 -58.04,-14.23l0 -44.78 65.91 -2.22c66.35,-2.35 118.43,-3.59 156.15,-3.59 63.15,0 114.39,3.59 153.93,10.94 39.37,7.3 76.81,23.22 111.9,47.94 35.22,24.59 62.32,56.49 81.39,95.75 18.95,39.23 28.47,82.33 28.47,129.6 0,48.21 -10.06,91.31 -30.11,129.33 -20.05,37.98 -47.11,68.23 -81.12,90.91 -33.98,22.64 -69.07,36.61 -105.55,42.02 -36.34,5.38 -97.54,8.14 -183.6,8.14l-197.3 0 -0.05 0zm213.88 -504.88l0 376.93c0,24.16 1.12,40.47 3.47,48.75 2.35,8.28 8.45,15.48 18.24,21.44 9.96,5.96 25.13,8.82 45.72,8.82 50.84,0 88.99,-18.51 114.26,-55.68 25.27,-37.17 37.98,-92.72 37.98,-166.65 0,-59.69 -9.38,-107.23 -28.03,-142.59 -18.68,-35.36 -42.83,-59.42 -72.68,-72.14 -29.71,-12.58 -69.34,-18.95 -118.97,-18.95l0.01 0.06zm452.91 446c0,-19.88 7.2,-37.04 21.44,-51.41 14.36,-14.36 31.63,-21.54 51.95,-21.54 20.32,0 37.58,7.2 51.95,21.54 14.23,14.36 21.44,31.52 21.44,51.41 0,20.19 -7.2,37.31 -21.71,51.55 -14.5,14.23 -31.63,21.44 -51.68,21.44 -20.02,0 -37.17,-7.2 -51.68,-21.44 -14.5,-14.23 -21.71,-31.36 -21.71,-51.55z"/>
    </g>
   </g>
  </g>
 </g>
</svg>
